<svg xmlns="http://www.w3.org/2000/svg" version="1.1" xmlns:xlink="http://www.w3.org/1999/xlink" width="425.2" height="425.2"><svg id="SvgjsSvg1041" xmlns="http://www.w3.org/2000/svg" version="1.1" viewBox="0 0 425.2 425.2">
  <!-- Generator: Adobe Illustrator 29.8.3, SVG Export Plug-In . SVG Version: 2.1.1 Build 3)  -->
  <defs>
    <style>
      .st0 {
        fill: #111;
      }

      .st1, .st2 {
        fill: #d42c2c;
      }

      .st2 {
        opacity: .47;
      }
    </style>
  </defs>
  <rect class="st0" y="0" width="425.2" height="425.2"></rect>
  <rect class="st2" width="425.2" height="425.2"></rect>
  <g>
    <path class="st1" d="M197.62,161.32l-64.89,76.43v26.12h-40.06v-26.12L27.77,161.32h47.27l52.72,66.5h-29.64l52.24-66.5h47.27Z"></path>
    <path class="st1" d="M325,161.32c14.42,0,26.33,1.39,35.73,4.17,9.4,2.78,16.77,6.57,22.11,11.38,5.34,4.81,9.11,10.28,11.3,16.42,2.19,6.14,3.28,12.58,3.28,19.31s-1.23,13.17-3.69,19.31c-2.46,6.14-6.49,11.62-12.1,16.42-5.61,4.81-13.04,8.6-22.27,11.38-9.24,2.78-20.7,4.17-34.37,4.17h-115.37v-102.55h115.37ZM249.69,231.83h73.71c5.98,0,11.06-.4,15.22-1.2s7.5-2,10.01-3.6c2.51-1.6,4.33-3.6,5.45-6.01,1.12-2.4,1.68-5.21,1.68-8.41s-.56-6.01-1.68-8.41c-1.12-2.4-2.94-4.41-5.45-6.01-2.51-1.6-5.85-2.81-10.01-3.6-4.17-.8-9.24-1.2-15.22-1.2h-73.71v38.45Z"></path>
  </g>
</svg><style>@media (prefers-color-scheme: light) { :root { filter: none; } }
@media (prefers-color-scheme: dark) { :root { filter: none; } }
</style></svg>